<?xml version="1.0" encoding="utf-8"?>
<!-- Generator: Adobe Illustrator 24.2.0, SVG Export Plug-In . SVG Version: 6.00 Build 0)  -->
<svg version="1.1" xmlns="http://www.w3.org/2000/svg" xmlns:xlink="http://www.w3.org/1999/xlink" x="0px" y="0px"
	 viewBox="0 0 800 800" style="enable-background:new 0 0 800 800;" xml:space="preserve">
<style type="text/css">
	.st0{display:none;}
	.st1{display:inline;fill:#FFFFFF;stroke:#1D1D1B;stroke-miterlimit:10;}
	.st2{display:inline;fill:#F79027;}
	.st3{display:inline;fill:#232303;}
	.st4{display:inline;fill:none;stroke:#232303;stroke-miterlimit:10;}
	.st5{display:inline;fill:#F15642;stroke:#232303;stroke-width:10;stroke-miterlimit:10;}
	.st6{display:inline;fill:#DA4E3C;}
	.st7{display:inline;fill:#EF7F18;}
	.st8{display:inline;fill:#1E1D05;}
	.st9{display:inline;fill:#FFFFFF;}
	.st10{display:inline;fill:none;stroke:#1E1D05;stroke-width:20;stroke-linecap:round;stroke-linejoin:round;stroke-miterlimit:10;}
	.st11{display:inline;}
	.st12{fill:#FFFFFF;}
	.st13{fill:#232303;}
	.st14{fill:#F79027;}
	.st15{display:inline;fill:#FFFFFF;stroke:#232303;stroke-width:10;stroke-miterlimit:10;}
	.st16{display:inline;fill:#E2E2E2;}
	.st17{display:inline;fill:#50BEE8;}
	.st18{display:inline;fill:none;stroke:#E2E5E7;stroke-width:4;stroke-linecap:round;stroke-linejoin:round;stroke-miterlimit:10;}
	.st19{display:inline;fill:none;stroke:#1E1D05;stroke-width:10;stroke-linecap:round;stroke-linejoin:round;stroke-miterlimit:10;}
	.st20{fill:#F15642;}
	.st21{fill:#DA4E3C;}
	.st22{fill:#EF7F18;}
	.st23{fill:#1E1D05;}
	.st24{fill:#E2E2E2;}
	.st25{fill:#50BEE8;}
	.st26{fill:#E2E5E7;}
</style>
<g id="Layer_1" class="st0">
	
		<image style="display:inline;overflow:visible;enable-background:new    ;" width="1960" height="1960" xlink:href="../../../../../../../Downloads/duck-face-emotion-set-vector.jpg"  transform="matrix(1.1362 0 0 1.1362 -2372.8281 -741.109)">
	</image>
	<path class="st1" d="M968.7-299.1c0,0-93.1-4.6-117.1,106c0,0-22.1,32.3-10.1,57.2s39.6,47,131.9,46.1
		c92.2-0.9,114.6-20.6,118.9-44.3c5.5-30.4-9.2-48.4-12.9-60.4C1075.8-205.9,1063.7-299.1,968.7-299.1z"/>
	<path class="st2" d="M996.1-182.7c0,0-21.4-11.7-52.3,0.3c-25.5,9.8-76,28.3-64.5,38.9s158.8,12,181.1-0.9
		C1077.2-154.2,996.1-182.7,996.1-182.7z"/>
	<circle class="st3" cx="922.4" cy="-199.3" r="6"/>
	<circle class="st3" cx="1012.7" cy="-199.3" r="6"/>
	
		<image style="display:inline;overflow:visible;enable-background:new    ;" width="512" height="512" xlink:href="../../../../../../../Downloads/disgusted.png"  transform="matrix(1.1974 0 0 1.1974 854.0245 827.968)">
	</image>
	<path class="st4" d="M2089.4,125.4"/>
	<path class="st5" d="M2089.4-720.3c0,0,208.1,0,272.4,274.6c63.2,269.7-234.4,288.4-274.2,288.4s-338.3-8.6-268.1-288.4
		C1888.4-720.3,2089.4-720.3,2089.4-720.3z"/>
	<path class="st6" d="M2358.4-439.1c-8-33.4-33.7-97.7-45.5-123.2c-1.5,25.4,8.9,49.8,12.1,79.7c1.3,12.8,8,65.9,0.8,105.3
		c-10,54.3-10.3,52.3-46.7,94.7c-36.4,41.4-107.3,85.1-160.5,91.8c-70.8,9.2-141.9,7.1-209.3-13c71.2,39.9,159,42.5,179.4,42.5
		C2127.8-161.3,2420.6-179.3,2358.4-439.1z"/>
	<path class="st2" d="M2139.8-391.2c0,0-41.6-22.7-101.7,0.5c-49.5,19.1-147.8,55-125.5,75.6s308.9,23.4,352.4-1.7
		C2297.7-335.7,2139.8-391.2,2139.8-391.2z"/>
	<path class="st7" d="M2198.3-368.3c12,11.1,26.7,21.1,26.7,36.3c0,4-4,8-8,9c-67,18-134,12-202,19c-7,0.9-13.9,1.7-20.9,2.6
		c94.8,6,240.8,1.9,270.9-15.4C2283.8-327.7,2239.4-350.7,2198.3-368.3z"/>
	<circle class="st8" cx="1976.7" cy="-421.6" r="29.2"/>
	<circle class="st9" cx="1976.7" cy="-421.6" r="10.5"/>
	<circle class="st8" cx="2193.1" cy="-416.4" r="29.2"/>
	<circle class="st9" cx="2193.1" cy="-416.4" r="10.5"/>
	<line class="st10" x1="2204" y1="-483.9" x2="2157.7" y2="-452.5"/>
	<line class="st10" x1="2010.3" y1="-456.1" x2="1964" y2="-487.5"/>
	<path class="st4" d="M1444.8,152.9"/>
	<g class="st11">
		<g>
			<path class="st12" d="M403.4,862.9c0,0,208.1,0,272.4,274.6c63.2,269.7-234.4,288.4-274.2,288.4s-338.4-8.5-268.1-288.4
				C202.4,862.9,403.4,862.9,403.4,862.9z"/>
			<path class="st13" d="M401.6,1430.9c-28.6,0-175.1-4.6-245.6-94.9c-38.9-49.9-48.1-117.1-27.3-199.7
				c15.9-63.3,40.1-117.3,72.1-160.5c25.7-34.7,56.3-62.6,91-82.9c59.3-34.6,109.5-35,111.6-35c2.2,0,54,0.4,114.6,35
				c35.5,20.3,66.5,48.2,92.2,82.9c32,43.3,55.7,97.3,70.6,160.6c18.6,79.3,8,144.7-31.4,194.3c-30.8,38.9-78.3,67.3-141,84.6
				C452.7,1430.5,406.6,1430.9,401.6,1430.9z M403.4,867.9c-0.7,0-50.1,0.6-107.1,33.9c-52.7,30.9-122.9,97.1-158,236.9
				c-20,79.5-11.4,143.8,25.5,191.2c67.6,86.7,209.9,91.1,237.7,91.1c17.9,0,59.9-3.2,104-15.4c60.7-16.7,106.4-44,135.9-81.1
				c37.4-47.2,47.3-109.7,29.5-185.8c-32.8-139.8-103.7-206-157.5-236.8C455.3,868.4,404.1,867.9,403.4,867.9z"/>
		</g>
		<g>
			<path class="st14" d="M453.8,1191.9c0,0-41.6-22.7-101.7,0.5c-49.5,19.1-147.8,55-125.5,75.6s308.9,23.4,352.4-1.7
				C611.6,1247.4,453.8,1191.9,453.8,1191.9z"/>
		</g>
		<g>
			<circle class="st13" cx="299.7" cy="1166.7" r="29.2"/>
		</g>
		<g>
			<circle class="st12" cx="299.7" cy="1166.7" r="10.5"/>
		</g>
		<g>
			<circle class="st13" cx="516" cy="1166.7" r="29.2"/>
		</g>
		<g>
			<circle class="st12" cx="516" cy="1166.7" r="10.5"/>
		</g>
		<g>
			<path d="M322.2,1118.3h-56c-4.7,0-8.5-3.8-8.5-8.5c0-4.7,3.8-8.5,8.5-8.5h56c4.7,0,8.5,3.8,8.5,8.5
				C330.7,1114.5,326.8,1118.3,322.2,1118.3z"/>
		</g>
		<g>
			<path d="M544.2,1118.3h-56c-4.7,0-8.5-3.8-8.5-8.5c0-4.7,3.8-8.5,8.5-8.5h56c4.7,0,8.5,3.8,8.5,8.5
				C552.7,1114.5,548.9,1118.3,544.2,1118.3z"/>
		</g>
	</g>
	<path class="st15" d="M1477-719.7c0,0,208.1,0,272.4,274.6c63.2,269.7-234.4,288.4-274.2,288.4s-338.3-8.6-268.1-288.4
		C1276-719.7,1477-719.7,1477-719.7z"/>
	<path class="st2" d="M1527.4-390.7c0,0-41.6-22.7-101.7,0.5c-49.5,19.1-147.8,55-125.5,75.6s308.9,23.4,352.4-1.7
		C1685.2-335.2,1527.4-390.7,1527.4-390.7z"/>
	<circle class="st8" cx="1373.3" cy="-421" r="29.2"/>
	<circle class="st9" cx="1373.3" cy="-421" r="10.5"/>
	<circle class="st8" cx="1589.6" cy="-415.8" r="29.2"/>
	<circle class="st9" cx="1589.6" cy="-415.8" r="10.5"/>
	<line class="st10" x1="1392.8" y1="-472.7" x2="1336.8" y2="-472.7"/>
	<line class="st10" x1="1617.8" y1="-472.7" x2="1561.9" y2="-472.7"/>
	
		<text transform="matrix(0.7042 0 0 1 -3105.7632 -1375.4492)" class="st11" style="font-family:'KoreanEMPJ-B'; font-size:298.858px;">fdfdfdfdf</text>
	<path class="st16" d="M1747.1-439.4c-8-33.4-33.7-97.7-45.5-123.2c-1.5,25.4,8.9,49.8,12.1,79.7c1.3,12.8,8,65.9,0.8,105.3
		c-10,54.3-10.3,52.3-46.7,94.7c-36.4,41.4-107.3,85.1-160.5,91.8c-70.8,9.2-141.9,7.1-209.3-13c71.2,39.9,159,42.5,179.4,42.5
		C1516.5-161.6,1809.3-179.6,1747.1-439.4z"/>
	<path class="st7" d="M1586-367.6c12,11.1,26.7,21.1,26.7,36.3c0,4-4,8-8,9c-67,18-134,12-202,19c-7,0.9-13.9,1.7-20.9,2.6
		c94.8,6,240.8,1.9,270.9-15.4C1671.5-327,1627.1-350,1586-367.6z"/>
	<path class="st15" d="M2769.4-708.9c0,0,208.1,0,272.4,274.6c63.2,269.7-234.4,288.4-274.2,288.4s-338.3-8.6-268.1-288.4
		C2568.4-708.9,2769.4-708.9,2769.4-708.9z"/>
	<path class="st2" d="M2819.8-379.9c0,0-41.6-22.7-101.7,0.5c-49.5,19.1-147.8,55-125.5,75.6s308.9,23.4,352.4-1.7
		C2977.6-324.4,2819.8-379.9,2819.8-379.9z"/>
	<circle class="st8" cx="2665.7" cy="-410.2" r="29.2"/>
	<circle class="st9" cx="2665.7" cy="-410.2" r="10.5"/>
	<circle class="st8" cx="2882" cy="-405" r="29.2"/>
	<circle class="st9" cx="2882" cy="-405" r="10.5"/>
	<path class="st16" d="M3039.5-428.5c-8-33.4-33.6-102.4-47.9-125.4c-1.5,25.4,11.3,52,14.4,81.9c1.3,12.8,8,65.9,0.8,105.3
		c-10,54.3-10.3,52.3-46.7,94.7c-36.4,41.4-107.3,85.1-160.5,91.8c-70.8,9.2-141.9,7.1-209.3-13c71.2,39.9,159,42.5,179.4,42.5
		C2808.9-150.8,3101.7-168.8,3039.5-428.5z"/>
	<path class="st7" d="M2878.4-356.8c12,11.1,26.7,21.1,26.7,36.3c0,4-4,8-8,9c-67,18-134,12-202,19c-7,0.9-13.9,1.7-20.9,2.6
		c94.8,6,240.8,1.9,270.9-15.4C2963.9-316.1,2919.5-339.2,2878.4-356.8z"/>
	<line class="st10" x1="2677.4" y1="-471.7" x2="2624.8" y2="-452.6"/>
	<line class="st10" x1="2922.5" y1="-447.9" x2="2870.4" y2="-468.2"/>
	<path class="st17" d="M2634.8-372.1c1.3-0.2,2.4,0.7,2.6,2.1c0.6,7,1.7,27.8-4.4,36.4c-7.4,10.5-18.8,14.5-26.3,9.8
		c-7.4-4.7-15.3-18-0.9-32.9C2616.7-368,2629.6-371.2,2634.8-372.1z"/>
	<path class="st17" d="M2906.3-374.4c-1.3-0.2-2.4,0.7-2.6,2.1c-0.6,7-1.7,27.8,4.4,36.4c7.4,10.5,18.8,14.5,26.3,9.8
		c7.4-4.7,15.3-18,0.9-32.9C2924.3-370.4,2911.4-373.6,2906.3-374.4z"/>
	<path class="st17" d="M2855.6-392.5c0,0,9.3,7.3,26.1,1.4c16.8-5.9,25.3,1.3,25.3,1.3s-4.6,8.1-13.1,11.5c-5.1,2-9.3,3.7-19.1,1.6
		C2861.4-379.5,2855.6-392.5,2855.6-392.5z"/>
	<path class="st17" d="M2692.2-397.6c0,0-9.3,7.3-26.1,1.4c-16.8-5.9-25.3,1.3-25.3,1.3s4.6,8.1,13.1,11.5c5.1,2,9.3,3.7,19.1,1.6
		C2686.4-384.7,2692.2-397.6,2692.2-397.6z"/>
	<path class="st15" d="M3442.3-722.5c0,0,208.1,0,272.4,274.6c63.2,269.7-234.4,288.4-274.2,288.4s-338.3-8.6-268.1-288.4
		C3241.3-722.5,3442.3-722.5,3442.3-722.5z"/>
	<line class="st10" x1="3358.1" y1="-475.5" x2="3302.1" y2="-475.5"/>
	<line class="st10" x1="3583.1" y1="-475.5" x2="3527.2" y2="-475.5"/>
	<path class="st16" d="M3712.4-442.2c-8-33.4-33.7-97.7-45.5-123.2c-1.5,25.4,8.9,49.8,12.1,79.7c1.3,12.8,8,65.9,0.8,105.3
		c-10,54.3-10.3,52.3-46.7,94.7c-36.4,41.4-107.3,85.1-160.5,91.8c-70.8,9.2-141.9,7.1-209.3-13c71.2,39.9,159,42.5,179.4,42.5
		C3481.7-164.4,3774.5-182.4,3712.4-442.2z"/>
	<path class="st10" d="M3525-408c0,0,3.6-28.3,30.4-26.5c26.8,1.8,23.6,30.2,23.6,30.2"/>
	<path class="st10" d="M3304.9-402.5c0,0-1.8-28.5,24.8-31.8c26.7-3.3,28.9,25.2,28.9,25.2"/>
	<path class="st9" d="M3274.5-312.1l343.4-6.8c0,0-94.1,66.5-171.7,65.5C3368.6-254.5,3274.5-312.1,3274.5-312.1z"/>
	<line class="st18" x1="3344.7" y1="-303.7" x2="3346.5" y2="-276.8"/>
	<line class="st18" x1="3397.9" y1="-302" x2="3399.2" y2="-262.4"/>
	<line class="st18" x1="3449" y1="-302" x2="3450.3" y2="-262.4"/>
	<line class="st18" x1="3501.7" y1="-302.6" x2="3500.3" y2="-269.8"/>
	<line class="st18" x1="3554.5" y1="-305.8" x2="3552.1" y2="-286.4"/>
	<path class="st2" d="M3492.7-393.5c0,0-41.6-22.7-101.7,0.5c-49.5,19.1-147.8,55-125.5,75.6s308.9,23.4,352.4-1.7
		C3650.4-338,3492.7-393.5,3492.7-393.5z"/>
	<path class="st7" d="M3551.3-370.4c12,11.1,26.7,21.1,26.7,36.3c0,4-4,8-8,9c-67,18-134,12-202,19c-7,0.9-13.9,1.7-20.9,2.6
		c94.8,6,240.8,1.9,270.9-15.4C3636.8-329.8,3592.3-352.9,3551.3-370.4z"/>
	<path class="st2" d="M3265.5-317.4c0,0,90.3,56.4,177.1,55.4c86.8-1,175.4-56.9,175.4-56.9s-63.4,78.9-170.6,78.9
		C3330.1-239.9,3265.5-317.4,3265.5-317.4z"/>
	<path class="st15" d="M4141.5-681.4c0,0,208.1,0,272.4,274.6c63.2,269.7-234.4,288.4-274.2,288.4c-39.8,0-338.3-8.6-268.1-288.4
		C3940.5-681.4,4141.5-681.4,4141.5-681.4z"/>
	<circle class="st8" cx="4028.9" cy="-405.3" r="37.6"/>
	<circle class="st9" cx="4028.9" cy="-405.3" r="10.3"/>
	<line class="st10" x1="4057.8" y1="-477.9" x2="4001.8" y2="-477.9"/>
	<line class="st10" x1="4280.4" y1="-477.9" x2="4224.5" y2="-477.9"/>
	<path class="st16" d="M4411.6-401c-8-33.4-33.7-97.7-45.5-123.2c-1.5,25.4,8.9,49.8,12.1,79.7c1.3,12.8,8,65.9,0.8,105.3
		c-10,54.3-10.3,52.3-46.7,94.7c-36.4,41.4-107.3,85.1-160.5,91.8c-70.8,9.2-141.9,7.1-209.3-13c71.2,39.9,159,42.5,179.4,42.5
		C4181-123.3,4473.8-141.3,4411.6-401z"/>
	<path class="st2" d="M4191.9-352.4c0,0-41.6-22.7-101.7,0.5c-49.5,19.1-147.8,55-125.5,75.6s308.9,23.4,352.4-1.7
		C4349.7-296.9,4191.9-352.4,4191.9-352.4z"/>
	<path class="st7" d="M4250.5-329.3c12,11.1,26.7,21.1,26.7,36.3c0,4-4,8-8,9c-67,18-134,12-202,19c-7,0.9-13.9,1.7-20.9,2.6
		c94.8,6,240.8,1.9,270.9-15.4C4336-288.6,4291.6-311.7,4250.5-329.3z"/>
	<path class="st19" d="M4298.3-384.4c0,0,0.1,10.3-5,16.3c-5.2,6-14.5,8.6-14.5,8.6"/>
	<path class="st19" d="M3982.3-387.2c0,0-0.1,10.3,5,16.3c5.2,6,14.5,8.6,14.5,8.6"/>
	<circle class="st8" cx="4253.9" cy="-401.7" r="37.6"/>
	<circle class="st9" cx="4253.9" cy="-401.7" r="10.4"/>
</g>
<g id="Layer_2">
	<g class="st0">
		<g class="st11">
			<path class="st20" d="M399.7,118.5c0,0,208.1,0,272.4,274.6c63.2,269.7-234.4,288.4-274.2,288.4s-338.3-8.6-268.1-288.4
				C198.7,118.5,399.7,118.5,399.7,118.5z"/>
			<path class="st13" d="M397.9,686.5c-28.6,0-175.1-4.6-245.6-94.9c-38.9-49.9-48.1-117-27.4-199.7
				c15.9-63.3,40.1-117.3,72.1-160.5c25.7-34.7,56.3-62.6,91.1-82.9c59.3-34.6,109.5-35,111.6-35c2.2,0,54,0.4,114.6,35
				c35.5,20.3,66.5,48.2,92.2,82.9c32,43.3,55.7,97.3,70.5,160.6c18.6,79.3,8,144.6-31.3,194.3c-30.8,38.9-78.3,67.3-141.1,84.6
				C449,686.1,402.9,686.5,397.9,686.5z M399.7,123.5c-0.7,0-50.1,0.6-107.1,33.9c-52.7,30.9-122.9,97-158,236.9
				c-19.9,79.5-11.3,143.8,25.5,191.1c67.6,86.7,209.9,91.1,237.7,91.1c17.9,0,59.9-3.2,104-15.3c60.7-16.7,106.4-44,135.9-81.1
				c37.4-47.1,47.3-109.7,29.4-185.8c-32.7-139.8-103.7-205.9-157.5-236.8C451.6,124.1,400.4,123.5,399.7,123.5z"/>
		</g>
		<g class="st11">
			<path class="st21" d="M668.7,399.7c-8-33.4-33.7-97.7-45.5-123.2c-1.5,25.4,8.9,49.8,12.1,79.7c1.3,12.8,8,65.9,0.8,105.3
				c-10,54.3-10.3,52.3-46.7,94.7c-36.4,41.4-107.3,85.1-160.5,91.8c-70.8,9.2-141.9,7.1-209.3-13c71.2,39.9,159,42.5,179.4,42.5
				C438.1,677.5,730.9,659.5,668.7,399.7z"/>
		</g>
		<g class="st11">
			<path class="st14" d="M450.1,447.6c0,0-41.6-22.7-101.7,0.5c-49.5,19.1-147.8,55-125.5,75.6c22.3,20.6,308.9,23.4,352.4-1.7
				C608,503.1,450.1,447.6,450.1,447.6z"/>
		</g>
		<g class="st11">
			<path class="st22" d="M508.6,470.5c12,11.1,26.7,21.1,26.7,36.3c0,4-4,8-8,9c-67,18-134,12-202,19c-7,0.9-13.9,1.7-20.9,2.6
				c94.8,6,240.8,1.9,270.9-15.4C594.1,511.1,549.7,488.1,508.6,470.5z"/>
		</g>
		<g class="st11">
			<circle class="st23" cx="287" cy="417.2" r="29.2"/>
		</g>
		<g class="st11">
			<circle class="st12" cx="287" cy="417.2" r="10.5"/>
		</g>
		<g class="st11">
			<circle class="st23" cx="503.4" cy="422.4" r="29.2"/>
		</g>
		<g class="st11">
			<circle class="st12" cx="503.4" cy="422.4" r="10.5"/>
		</g>
		<g class="st11">
			<path class="st23" d="M468,396.3c-3.2,0-6.4-1.5-8.3-4.4c-3.1-4.6-1.9-10.8,2.7-13.9l46.3-31.4c4.6-3.1,10.8-1.9,13.9,2.7
				c3.1,4.6,1.9,10.8-2.7,13.9l-46.3,31.4C471.8,395.7,469.9,396.3,468,396.3z"/>
		</g>
		<g class="st11">
			<path class="st23" d="M320.6,392.7c-1.9,0-3.9-0.6-5.6-1.7l-46.3-31.4c-4.6-3.1-5.8-9.3-2.7-13.9c3.1-4.6,9.3-5.8,13.9-2.7
				l46.3,31.4c4.6,3.1,5.8,9.3,2.7,13.9C327,391.2,323.8,392.7,320.6,392.7z"/>
		</g>
	</g>
	<g class="st0">
		<g class="st11">
			<path class="st12" d="M399.7,118.5c0,0,208.1,0,272.4,274.6c63.2,269.7-234.4,288.4-274.2,288.4s-338.3-8.6-268.1-288.4
				C198.7,118.5,399.7,118.5,399.7,118.5z"/>
			<path class="st13" d="M397.9,686.5c-28.6,0-175.1-4.6-245.6-94.9c-38.9-49.9-48.1-117-27.4-199.7
				c15.9-63.3,40.1-117.3,72.1-160.5c25.7-34.7,56.3-62.6,91.1-82.9c59.3-34.6,109.5-35,111.6-35c2.2,0,54,0.4,114.6,35
				c35.5,20.3,66.5,48.2,92.2,82.9c32,43.3,55.7,97.3,70.5,160.6c18.6,79.3,8,144.6-31.3,194.3c-30.8,38.9-78.3,67.3-141.1,84.6
				C449,686.1,403,686.5,397.9,686.5z M399.7,123.5c-0.6,0-50.1,0.5-107.1,33.9c-52.7,30.9-122.9,97-158,236.9
				c-19.9,79.5-11.3,143.8,25.5,191.1c67.6,86.7,209.9,91.1,237.7,91.1c17.9,0,59.9-3.2,104-15.3c60.7-16.7,106.4-44,135.9-81.1
				c37.4-47.1,47.3-109.7,29.4-185.8c-32.8-140.1-104-206.2-157.9-237.1C451.2,123.9,400.4,123.5,399.7,123.5z"/>
		</g>
		<g class="st11">
			<path class="st14" d="M450.1,447.5c0,0-41.6-22.7-101.7,0.5c-49.5,19.1-147.8,55-125.5,75.6c22.3,20.6,308.9,23.4,352.4-1.7
				C607.9,503,450.1,447.5,450.1,447.5z"/>
		</g>
		<g class="st11">
			<circle class="st23" cx="296" cy="417.2" r="29.2"/>
		</g>
		<g class="st11">
			<circle class="st12" cx="296" cy="417.2" r="10.5"/>
		</g>
		<g class="st11">
			<circle class="st23" cx="512.3" cy="422.4" r="29.2"/>
		</g>
		<g class="st11">
			<circle class="st12" cx="512.3" cy="422.4" r="10.5"/>
		</g>
		<g class="st11">
			<path class="st23" d="M315.5,375.5h-56c-5.5,0-10-4.5-10-10s4.5-10,10-10h56c5.5,0,10,4.5,10,10S321,375.5,315.5,375.5z"/>
		</g>
		<g class="st11">
			<path class="st23" d="M540.5,375.5h-55.9c-5.5,0-10-4.5-10-10s4.5-10,10-10h55.9c5.5,0,10,4.5,10,10S546,375.5,540.5,375.5z"/>
		</g>
		<g class="st11">
			<path class="st24" d="M669.8,398.8c-8-33.4-33.7-97.7-45.5-123.2c-1.5,25.4,8.9,49.8,12.1,79.7c1.3,12.8,8,65.9,0.8,105.3
				c-10,54.3-10.3,52.3-46.7,94.7C554,596.6,483.1,640.3,429.9,647c-70.8,9.2-141.9,7.1-209.3-13c71.2,39.9,159,42.5,179.4,42.5
				C439.2,676.6,732,658.6,669.8,398.8z"/>
		</g>
		<g class="st11">
			<path class="st22" d="M508.7,470.6c12,11.1,26.7,21.1,26.7,36.3c0,4-4,8-8,9c-67,18-134,12-202,19c-7,0.9-13.9,1.7-20.9,2.6
				c94.8,6,240.8,1.9,270.9-15.4C594.2,511.2,549.7,488.2,508.7,470.6z"/>
		</g>
	</g>
	<g>
		<g>
			<path class="st12" d="M399.7,118.5c0,0,208.1,0,272.4,274.6c63.2,269.7-234.4,288.4-274.2,288.4s-338.3-8.6-268.1-288.4
				C198.7,118.5,399.7,118.5,399.7,118.5z"/>
			<path class="st13" d="M397.9,686.5c-28.6,0-175.1-4.6-245.6-94.9c-38.9-49.9-48.1-117-27.4-199.7
				c15.9-63.3,40.1-117.3,72.1-160.5c25.7-34.7,56.3-62.6,91.1-82.9c59.3-34.6,109.5-35,111.6-35c2.2,0,54,0.4,114.6,35
				c35.5,20.3,66.5,48.2,92.2,82.9c32,43.3,55.7,97.3,70.5,160.6c18.6,79.3,8,144.6-31.3,194.3c-30.8,38.9-78.3,67.3-141.1,84.6
				C449,686.1,403,686.5,397.9,686.5z M399.7,123.5c-0.7,0-50.1,0.6-107.1,33.9c-52.7,30.9-122.9,97-158,236.9
				c-19.9,79.5-11.3,143.8,25.5,191.1c67.6,86.7,209.9,91.1,237.7,91.1c17.9,0,59.9-3.2,104-15.3c60.7-16.7,106.4-44,135.9-81.1
				c37.4-47.1,47.3-109.7,29.4-185.8c-32.7-139.8-103.7-205.9-157.5-236.8C451.6,124.1,400.4,123.5,399.7,123.5z"/>
		</g>
		<g>
			<path class="st14" d="M450.1,447.5c0,0-41.6-22.7-101.7,0.5c-49.5,19.1-147.8,55-125.5,75.6c22.3,20.6,308.9,23.4,352.4-1.7
				C607.9,503,450.1,447.5,450.1,447.5z"/>
		</g>
		<g>
			<circle class="st23" cx="296" cy="417.2" r="29.2"/>
		</g>
		<g>
			<circle class="st12" cx="296" cy="417.2" r="10.5"/>
		</g>
		<g>
			<circle class="st23" cx="512.3" cy="422.4" r="29.2"/>
		</g>
		<g>
			<circle class="st12" cx="512.3" cy="422.4" r="10.5"/>
		</g>
		<g>
			<path class="st24" d="M669.8,398.8c-8-33.4-33.6-102.4-47.9-125.4c-1.5,25.4,11.3,52,14.4,81.9c1.3,12.8,8,65.9,0.8,105.3
				c-10,54.3-10.3,52.3-46.7,94.7C554,596.6,483.1,640.3,429.9,647c-70.8,9.2-141.9,7.1-209.3-13c71.2,39.9,159,42.5,179.4,42.5
				C439.2,676.6,732,658.6,669.8,398.8z"/>
		</g>
		<g>
			<path class="st22" d="M508.7,470.6c12,11.1,26.7,21.1,26.7,36.3c0,4-4,8-8,9c-67,18-134,12-202,19c-7,0.9-13.9,1.7-20.9,2.6
				c94.8,6,240.8,1.9,270.9-15.4C594.2,511.2,549.7,488.2,508.7,470.6z"/>
		</g>
		<g>
			<path class="st23" d="M255.1,384.8c-4.1,0-7.9-2.5-9.4-6.6c-1.9-5.2,0.8-10.9,6-12.8l52.6-19.2c5.2-1.9,10.9,0.8,12.8,6
				c1.9,5.2-0.8,10.9-6,12.8l-52.6,19.2C257.4,384.6,256.2,384.8,255.1,384.8z"/>
		</g>
		<g>
			<path class="st23" d="M552.8,389.4c-1.2,0-2.4-0.2-3.6-0.7L497,368.5c-5.1-2-7.7-7.8-5.7-12.9c2-5.1,7.8-7.7,12.9-5.7l52.2,20.2
				c5.1,2,7.7,7.8,5.7,12.9C560.6,387,556.8,389.4,552.8,389.4z"/>
		</g>
		<g>
			<path class="st25" d="M265.1,455.3c1.3-0.2,2.4,0.7,2.6,2.1c0.6,7,1.7,27.8-4.4,36.4c-7.4,10.5-18.8,14.5-26.3,9.8
				c-7.4-4.7-15.3-18-0.9-32.9C247,459.3,259.9,456.1,265.1,455.3z"/>
		</g>
		<g>
			<path class="st25" d="M536.5,452.9c-1.3-0.2-2.4,0.7-2.6,2.1c-0.6,7-1.7,27.8,4.4,36.4c7.4,10.5,18.8,14.5,26.3,9.8
				c7.4-4.7,15.3-18,0.9-32.9C554.6,457,541.7,453.8,536.5,452.9z"/>
		</g>
		<g>
			<path class="st25" d="M485.9,434.9c0,0,9.3,7.3,26.1,1.4c16.8-5.9,25.3,1.3,25.3,1.3s-4.6,8.1-13.1,11.5c-5.1,2-9.3,3.7-19.1,1.6
				C491.7,447.8,485.9,434.9,485.9,434.9z"/>
		</g>
		<g>
			<path class="st25" d="M322.4,429.7c0,0-9.3,7.3-26.1,1.4c-16.8-5.9-25.3,1.3-25.3,1.3s4.6,8.1,13.1,11.5c5.1,2,9.3,3.7,19.1,1.6
				C316.6,442.7,322.4,429.7,322.4,429.7z"/>
		</g>
	</g>
	<g class="st0">
		<g class="st11">
			<path class="st12" d="M399.7,118.5c0,0,208.1,0,272.4,274.6c63.2,269.7-234.4,288.4-274.2,288.4s-338.3-8.6-268.1-288.4
				C198.7,118.5,399.7,118.5,399.7,118.5z"/>
			<path class="st13" d="M397.9,686.5c-28.6,0-175.1-4.6-245.6-94.9c-38.9-49.9-48.1-117-27.4-199.7
				c15.9-63.3,40.1-117.3,72.1-160.5c25.7-34.7,56.3-62.6,91.1-82.9c59.3-34.6,109.5-35,111.6-35c2.2,0,54,0.4,114.6,35
				c35.5,20.3,66.5,48.2,92.2,82.9c32,43.3,55.7,97.3,70.5,160.6c18.6,79.3,8,144.6-31.3,194.3c-30.8,38.9-78.3,67.3-141.1,84.6
				C449,686.1,403,686.5,397.9,686.5z M399.7,123.5c-0.6,0-50.1,0.5-107.1,33.9c-52.7,30.9-122.9,97-158,236.9
				c-19.9,79.5-11.3,143.8,25.5,191.1c67.6,86.7,209.9,91.1,237.7,91.1c17.9,0,59.9-3.2,104-15.3c60.7-16.7,106.4-44,135.9-81.1
				c37.4-47.1,47.3-109.7,29.4-185.8c-32.8-140.1-104-206.2-157.9-237.1C451.2,123.9,400.4,123.5,399.7,123.5z"/>
		</g>
		<g class="st11">
			<path class="st23" d="M315.5,375.5h-56c-5.5,0-10-4.5-10-10s4.5-10,10-10h56c5.5,0,10,4.5,10,10S321,375.5,315.5,375.5z"/>
		</g>
		<g class="st11">
			<path class="st23" d="M540.5,375.5h-55.9c-5.5,0-10-4.5-10-10s4.5-10,10-10h55.9c5.5,0,10,4.5,10,10S546,375.5,540.5,375.5z"/>
		</g>
		<g class="st11">
			<path class="st24" d="M669.8,398.8c-8-33.4-33.7-97.7-45.5-123.2c-1.5,25.4,8.9,49.8,12.1,79.7c1.3,12.8,8,65.9,0.8,105.3
				c-10,54.3-10.3,52.3-46.7,94.7C554,596.6,483.1,640.3,429.9,647c-70.8,9.2-141.9,7.1-209.3-13c71.2,39.9,159,42.5,179.4,42.5
				C439.2,676.6,732,658.6,669.8,398.8z"/>
		</g>
		<g class="st11">
			<path class="st23" d="M536.5,446.7c-0.4,0-0.7,0-1.1-0.1c-5.5-0.6-9.4-5.6-8.8-11c0.2-2.5,0-10.1-3.8-14.6
				c-2.3-2.7-5.7-4.1-10.6-4.5c-16.3-1.1-19.3,14.7-19.8,17.9c-0.7,5.5-5.7,9.3-11.2,8.6c-5.5-0.7-9.4-5.7-8.7-11.2
				c1.6-13,12.3-37.2,41-35.3c13,0.9,20.6,6.8,24.6,11.7c9.9,11.9,8.5,27.8,8.3,29.6C545.8,442.9,541.5,446.7,536.5,446.7z"/>
		</g>
		<g class="st11">
			<path class="st23" d="M262.3,448.5c-5.2,0-9.6-4.1-10-9.4c-0.8-13.1,5.1-38.9,33.6-42.4c13-1.6,21.5,2.8,26.4,6.8
				c12,9.8,13.6,25.7,13.7,27.5c0.4,5.5-3.7,10.3-9.2,10.8c-5.5,0.4-10.3-3.7-10.8-9.2c-0.2-2.5-1.9-9.9-6.5-13.6
				c-2.7-2.2-6.4-3-11.2-2.4c-16.2,2-16.2,18.1-16.1,21.3c0.4,5.5-3.8,10.2-9.3,10.6C262.8,448.5,262.6,448.5,262.3,448.5z"/>
		</g>
		<g class="st11">
			<path class="st12" d="M232,528.9l343.4-6.8c0,0-94.1,66.5-171.7,65.5S232,528.9,232,528.9z"/>
		</g>
		<g class="st11">
			<path class="st26" d="M303.9,566.2c-1,0-1.9-0.8-2-1.9l-1.8-26.9c-0.1-1.1,0.8-2.1,1.9-2.1c1.1-0.1,2.1,0.8,2.1,1.9l1.8,26.9
				c0.1,1.1-0.8,2.1-1.9,2.1C304,566.2,304,566.2,303.9,566.2z"/>
		</g>
		<g class="st11">
			<path class="st26" d="M356.6,580.6c-1.1,0-2-0.9-2-1.9l-1.3-39.6c0-1.1,0.8-2,1.9-2.1c1.1,0,2,0.8,2.1,1.9l1.3,39.6
				C358.6,579.7,357.8,580.6,356.6,580.6C356.6,580.6,356.6,580.6,356.6,580.6z"/>
		</g>
		<g class="st11">
			<path class="st26" d="M407.7,580.6c-1.1,0-2-0.9-2-1.9l-1.3-39.6c0-1.1,0.8-2,1.9-2.1c1.1,0,2,0.8,2.1,1.9l1.3,39.6
				C409.8,579.7,408.9,580.6,407.7,580.6C407.8,580.6,407.8,580.6,407.7,580.6z"/>
		</g>
		<g class="st11">
			<path class="st26" d="M457.7,573.2C457.7,573.2,457.6,573.2,457.7,573.2c-1.2,0-2-1-2-2.1l1.4-32.8c0-1.1,1-2,2.1-1.9
				c1.1,0,2,1,1.9,2.1l-1.4,32.8C459.7,572.4,458.8,573.2,457.7,573.2z"/>
		</g>
		<g class="st11">
			<path class="st26" d="M509.5,556.6c-0.1,0-0.2,0-0.3,0c-1.1-0.1-1.9-1.1-1.7-2.2L510,535c0.1-1.1,1.1-1.9,2.2-1.7
				c1.1,0.1,1.9,1.1,1.7,2.2l-2.4,19.4C511.4,555.8,510.5,556.6,509.5,556.6z"/>
		</g>
		<g class="st11">
			<path class="st14" d="M450.1,447.5c0,0-41.6-22.7-101.7,0.5c-49.5,19.1-147.8,55-125.5,75.6c22.3,20.6,308.9,23.4,352.4-1.7
				C607.9,503,450.1,447.5,450.1,447.5z"/>
		</g>
		<g class="st11">
			<path class="st22" d="M508.7,470.6c12,11.1,26.7,21.1,26.7,36.3c0,4-4,8-8,9c-67,18-134,12-202,19c-7,0.9-13.9,1.7-20.9,2.6
				c94.8,6,240.8,1.9,270.9-15.4C594.2,511.2,549.7,488.2,508.7,470.6z"/>
		</g>
		<g class="st11">
			<path class="st14" d="M222.9,523.6c0,0,90.3,56.4,177.1,55.4c86.8-1,175.4-56.9,175.4-56.9S512,601,404.7,601
				C287.5,601.1,222.9,523.6,222.9,523.6z"/>
		</g>
	</g>
	<g class="st0">
		<g class="st11">
			<path class="st12" d="M399.7,118.5c0,0,208.1,0,272.4,274.6c63.2,269.7-234.4,288.4-274.2,288.4s-338.3-8.6-268.1-288.4
				C198.7,118.5,399.7,118.5,399.7,118.5z"/>
			<path class="st13" d="M397.9,686.5c-28.6,0-175.1-4.6-245.6-94.9c-38.9-49.9-48.1-117-27.4-199.7
				c15.9-63.3,40.1-117.3,72.1-160.5c25.7-34.7,56.3-62.6,91.1-82.9c59.3-34.6,109.5-35,111.6-35c2.2,0,54,0.4,114.6,35
				c35.5,20.3,66.5,48.2,92.2,82.9c32,43.3,55.7,97.3,70.5,160.6c18.6,79.3,8,144.6-31.3,194.3c-30.8,38.9-78.3,67.3-141.1,84.6
				C449,686.1,403,686.5,397.9,686.5z M399.7,123.5c-0.6,0-50.1,0.5-107.1,33.9c-52.7,30.9-122.9,97-158,236.9
				c-19.9,79.5-11.3,143.8,25.5,191.1c67.6,86.7,209.9,91.1,237.7,91.1c17.9,0,59.9-3.2,104-15.3c60.7-16.7,106.4-44,135.9-81.1
				c37.4-47.1,47.3-109.7,29.4-185.8c-32.8-140.1-104-206.2-157.9-237.1C451.2,123.9,400.4,123.5,399.7,123.5z"/>
		</g>
		<g class="st11">
			<circle class="st23" cx="287.1" cy="394.6" r="37.6"/>
		</g>
		<g class="st11">
			<circle class="st12" cx="287.1" cy="394.6" r="10.3"/>
		</g>
		<g class="st11">
			<path class="st23" d="M316,332h-56c-5.5,0-10-4.5-10-10s4.5-10,10-10h56c5.5,0,10,4.5,10,10S321.5,332,316,332z"/>
		</g>
		<g class="st11">
			<path class="st23" d="M538.6,332h-55.9c-5.5,0-10-4.5-10-10s4.5-10,10-10h55.9c5.5,0,10,4.5,10,10S544.1,332,538.6,332z"/>
		</g>
		<g class="st11">
			<path class="st24" d="M669.8,398.8c-8-33.4-33.7-97.7-45.5-123.2c-1.5,25.4,8.9,49.8,12.1,79.7c1.3,12.8,8,65.9,0.8,105.3
				c-10,54.3-10.3,52.3-46.7,94.7C554,596.6,483.1,640.3,429.9,647c-70.8,9.2-141.9,7.1-209.3-13c71.2,39.9,159,42.5,179.4,42.5
				C439.2,676.6,732,658.6,669.8,398.8z"/>
		</g>
		<g class="st11">
			<path class="st14" d="M450.1,447.5c0,0-41.6-22.7-101.7,0.5c-49.5,19.1-147.8,55-125.5,75.6c22.3,20.6,308.9,23.4,352.4-1.7
				C607.9,503,450.1,447.5,450.1,447.5z"/>
		</g>
		<g class="st11">
			<path class="st22" d="M508.7,470.6c12,11.1,26.7,21.1,26.7,36.3c0,4-4,8-8,9c-67,18-134,12-202,19c-7,0.9-13.9,1.7-20.9,2.6
				c94.8,6,240.8,1.9,270.9-15.4C594.2,511.2,549.7,488.2,508.7,470.6z"/>
		</g>
		<g class="st11">
			<path class="st23" d="M536.9,445.4c-2.2,0-4.2-1.5-4.8-3.7c-0.7-2.7,0.8-5.4,3.5-6.2c2.2-0.6,8.7-3.1,12-7
				c3.2-3.7,3.8-10.8,3.8-13c0-2.8,2.2-5,4.9-5.1c0,0,0,0,0.1,0c2.7,0,5,2.2,5,4.9c0,1.2,0,12.4-6.2,19.6c-6,7-15.8,9.9-16.9,10.2
				C537.8,445.3,537.4,445.4,536.9,445.4z"/>
		</g>
		<g class="st11">
			<path class="st23" d="M260,442.6c-0.4,0-0.9-0.1-1.3-0.2c-1.1-0.3-11-3.2-16.9-10.2c-6.2-7.2-6.2-18.4-6.2-19.6
				c0-2.7,2.3-4.9,5-4.9c0,0,0,0,0.1,0c2.8,0,5,2.3,4.9,5c0,2.4,0.6,9.3,3.8,13c3.4,3.9,9.8,6.4,12,7c2.7,0.7,4.2,3.5,3.5,6.2
				C264.2,441.1,262.2,442.6,260,442.6z"/>
		</g>
		<g class="st11">
			<circle class="st23" cx="512.1" cy="398.2" r="37.6"/>
		</g>
		<g class="st11">
			<circle class="st12" cx="512.1" cy="398.2" r="10.4"/>
		</g>
	</g>
</g>
</svg>
