<?xml version="1.0" encoding="utf-8"?>
<!-- Generator: Adobe Illustrator 24.2.0, SVG Export Plug-In . SVG Version: 6.00 Build 0)  -->
<svg version="1.1" id="Layer_1" xmlns="http://www.w3.org/2000/svg" xmlns:xlink="http://www.w3.org/1999/xlink" x="0px" y="0px"
	 viewBox="0 0 512 512" style="enable-background:new 0 0 512 512;" xml:space="preserve">
<style type="text/css">
	.st0{fill:#FFFFFF;}
</style>
<path d="M167.3,18.1c5.4-10.8,16.5-17.7,28.6-17.7h120.4c12.1,0,23.2,6.8,28.6,17.7l7.2,14.3h96c17.7,0,32,14.3,32,32
	s-14.3,32-32,32h-384c-17.7,0-32-14.3-32-32s14.3-32,32-32h96L167.3,18.1z M426.9,466.5c-1.6,26.2-22.5,45.9-47.9,45.9H133.2
	c-25.3,0-46.3-19.7-47.9-45.9L63.2,128.4h384.9L426.9,466.5z"/>
<g>
	<path class="st0" d="M346.5,421.3c-4.5,0-9-1.7-12.4-5.1L153.3,235.4c-6.8-6.8-6.8-17.9,0-24.7c6.8-6.8,17.9-6.8,24.7,0
		l180.8,180.8c6.8,6.8,6.8,17.9,0,24.7C355.5,419.6,351,421.3,346.5,421.3z"/>
</g>
<g>
	<path class="st0" d="M165.7,421.3c-4.5,0-9-1.7-12.4-5.1c-6.8-6.8-6.8-17.9,0-24.7l180.8-180.8c6.8-6.8,17.9-6.8,24.7,0
		c6.8,6.8,6.8,17.9,0,24.7L178.1,416.2C174.7,419.6,170.2,421.3,165.7,421.3z"/>
</g>
</svg>
